<svg xmlns="http://www.w3.org/2000/svg" width="500" height="320" viewBox="0 0 500 320" font-family="-apple-system,Segoe UI,Helvetica,Arial,sans-serif">
  <text x="140.0" y="34" font-size="17" font-weight="600" text-anchor="middle" fill="#e6edf3">CVSS Severity</text>
  <path d="M140.00,170.00 L140.00,65.00 A105.0,105.0 0 0 1 242.04,145.25 Z" fill="#d32f2f" stroke="#0d1117" stroke-width="2"/>
  <path d="M140.00,170.00 L242.04,145.25 A105.0,105.0 0 0 1 75.09,252.54 Z" fill="#f57c00" stroke="#0d1117" stroke-width="2"/>
  <path d="M140.00,170.00 L75.09,252.54 A105.0,105.0 0 0 1 83.23,81.67 Z" fill="#f9c80e" stroke="#0d1117" stroke-width="2"/>
  <path d="M140.00,170.00 L83.23,81.67 A105.0,105.0 0 0 1 125.06,66.07 Z" fill="#2e7d32" stroke="#0d1117" stroke-width="2"/>
  <path d="M140.00,170.00 L125.06,66.07 A105.0,105.0 0 0 1 140.00,65.00 Z" fill="#9e9e9e" stroke="#0d1117" stroke-width="2"/>
  <text x="140.0" y="305" font-size="12" text-anchor="middle" fill="#8b949e">132 CVEs</text>
  <rect x="300.0" y="103.0" width="16" height="16" rx="3" fill="#d32f2f"/><text x="324.0" y="116.0" font-size="14" fill="#e6edf3">Critical: 28 (21%)</text>
  <rect x="300.0" y="133.0" width="16" height="16" rx="3" fill="#f57c00"/><text x="324.0" y="146.0" font-size="14" fill="#e6edf3">High: 52 (39%)</text>
  <rect x="300.0" y="163.0" width="16" height="16" rx="3" fill="#f9c80e"/><text x="324.0" y="176.0" font-size="14" fill="#e6edf3">Medium: 40 (30%)</text>
  <rect x="300.0" y="193.0" width="16" height="16" rx="3" fill="#2e7d32"/><text x="324.0" y="206.0" font-size="14" fill="#e6edf3">Low: 9 (7%)</text>
  <rect x="300.0" y="223.0" width="16" height="16" rx="3" fill="#9e9e9e"/><text x="324.0" y="236.0" font-size="14" fill="#e6edf3">Unscored: 3 (2%)</text>
</svg>
