<svg xmlns="http://www.w3.org/2000/svg" width="500" height="320" viewBox="0 0 500 320" font-family="-apple-system,Segoe UI,Helvetica,Arial,sans-serif">
  <text x="140.0" y="34" font-size="17" font-weight="600" text-anchor="middle" fill="#e6edf3">CVSS Severity</text>
  <path d="M140.00,170.00 L140.00,65.00 A105.0,105.0 0 0 1 239.86,137.55 Z" fill="#d32f2f" stroke="#0d1117" stroke-width="2"/>
  <path d="M140.00,170.00 L239.86,137.55 A105.0,105.0 0 0 1 78.28,254.95 Z" fill="#f57c00" stroke="#0d1117" stroke-width="2"/>
  <path d="M140.00,170.00 L78.28,254.95 A105.0,105.0 0 0 1 80.28,83.64 Z" fill="#f9c80e" stroke="#0d1117" stroke-width="2"/>
  <path d="M140.00,170.00 L80.28,83.64 A105.0,105.0 0 0 1 120.57,66.81 Z" fill="#2e7d32" stroke="#0d1117" stroke-width="2"/>
  <path d="M140.00,170.00 L120.57,66.81 A105.0,105.0 0 0 1 140.00,65.00 Z" fill="#9e9e9e" stroke="#0d1117" stroke-width="2"/>
  <text x="140.0" y="305" font-size="12" text-anchor="middle" fill="#8b949e">135 CVEs</text>
  <rect x="300.0" y="103.0" width="16" height="16" rx="3" fill="#d32f2f"/><text x="324.0" y="116.0" font-size="14" fill="#e6edf3">Critical: 27 (20%)</text>
  <rect x="300.0" y="133.0" width="16" height="16" rx="3" fill="#f57c00"/><text x="324.0" y="146.0" font-size="14" fill="#e6edf3">High: 54 (40%)</text>
  <rect x="300.0" y="163.0" width="16" height="16" rx="3" fill="#f9c80e"/><text x="324.0" y="176.0" font-size="14" fill="#e6edf3">Medium: 41 (30%)</text>
  <rect x="300.0" y="193.0" width="16" height="16" rx="3" fill="#2e7d32"/><text x="324.0" y="206.0" font-size="14" fill="#e6edf3">Low: 9 (7%)</text>
  <rect x="300.0" y="223.0" width="16" height="16" rx="3" fill="#9e9e9e"/><text x="324.0" y="236.0" font-size="14" fill="#e6edf3">Unscored: 4 (3%)</text>
</svg>
