<svg xmlns="http://www.w3.org/2000/svg" width="500" height="320" viewBox="0 0 500 320" font-family="-apple-system,Segoe UI,Helvetica,Arial,sans-serif">
  <text x="140.0" y="34" font-size="17" font-weight="600" text-anchor="middle" fill="#24292f">CVSS Severity</text>
  <path d="M140.00,170.00 L140.00,65.00 A105.0,105.0 0 0 1 219.80,101.76 Z" fill="#d32f2f" stroke="#ffffff" stroke-width="2"/>
  <path d="M140.00,170.00 L219.80,101.76 A105.0,105.0 0 0 1 100.69,267.36 Z" fill="#f57c00" stroke="#ffffff" stroke-width="2"/>
  <path d="M140.00,170.00 L100.69,267.36 A105.0,105.0 0 0 1 58.58,103.69 Z" fill="#f9c80e" stroke="#ffffff" stroke-width="2"/>
  <path d="M140.00,170.00 L58.58,103.69 A105.0,105.0 0 0 1 87.14,79.28 Z" fill="#2e7d32" stroke="#ffffff" stroke-width="2"/>
  <path d="M140.00,170.00 L87.14,79.28 A105.0,105.0 0 0 1 140.00,65.00 Z" fill="#9e9e9e" stroke="#ffffff" stroke-width="2"/>
  <text x="140.0" y="305" font-size="12" text-anchor="middle" fill="#57606a">262 CVEs</text>
  <rect x="300.0" y="103.0" width="16" height="16" rx="3" fill="#d32f2f"/><text x="324.0" y="116.0" font-size="14" fill="#24292f">Critical: 36 (13.74%)</text>
  <rect x="300.0" y="133.0" width="16" height="16" rx="3" fill="#f57c00"/><text x="324.0" y="146.0" font-size="14" fill="#24292f">High: 111 (42.37%)</text>
  <rect x="300.0" y="163.0" width="16" height="16" rx="3" fill="#f9c80e"/><text x="324.0" y="176.0" font-size="14" fill="#24292f">Medium: 78 (29.77%)</text>
  <rect x="300.0" y="193.0" width="16" height="16" rx="3" fill="#2e7d32"/><text x="324.0" y="206.0" font-size="14" fill="#24292f">Low: 15 (5.73%)</text>
  <rect x="300.0" y="223.0" width="16" height="16" rx="3" fill="#9e9e9e"/><text x="324.0" y="236.0" font-size="14" fill="#24292f">Unscored: 22 (8.40%)</text>
</svg>
