<svg xmlns="http://www.w3.org/2000/svg" width="500" height="320" viewBox="0 0 500 320" font-family="-apple-system,Segoe UI,Helvetica,Arial,sans-serif">
  <text x="140.0" y="34" font-size="17" font-weight="600" text-anchor="middle" fill="#24292f">CVSS Severity</text>
  <path d="M140.00,170.00 L140.00,65.00 A105.0,105.0 0 0 1 227.09,111.34 Z" fill="#d32f2f" stroke="#ffffff" stroke-width="2"/>
  <path d="M140.00,170.00 L227.09,111.34 A105.0,105.0 0 0 1 69.13,247.47 Z" fill="#f57c00" stroke="#ffffff" stroke-width="2"/>
  <path d="M140.00,170.00 L69.13,247.47 A105.0,105.0 0 0 1 83.95,81.21 Z" fill="#f9c80e" stroke="#ffffff" stroke-width="2"/>
  <path d="M140.00,170.00 L83.95,81.21 A105.0,105.0 0 0 1 118.37,67.25 Z" fill="#2e7d32" stroke="#ffffff" stroke-width="2"/>
  <path d="M140.00,170.00 L118.37,67.25 A105.0,105.0 0 0 1 140.00,65.00 Z" fill="#9e9e9e" stroke="#ffffff" stroke-width="2"/>
  <text x="140.0" y="305" font-size="12" text-anchor="middle" fill="#57606a">212 CVEs</text>
  <rect x="300.0" y="103.0" width="16" height="16" rx="3" fill="#d32f2f"/><text x="324.0" y="116.0" font-size="14" fill="#24292f">Critical: 33 (16%)</text>
  <rect x="300.0" y="133.0" width="16" height="16" rx="3" fill="#f57c00"/><text x="324.0" y="146.0" font-size="14" fill="#24292f">High: 98 (46%)</text>
  <rect x="300.0" y="163.0" width="16" height="16" rx="3" fill="#f9c80e"/><text x="324.0" y="176.0" font-size="14" fill="#24292f">Medium: 62 (29%)</text>
  <rect x="300.0" y="193.0" width="16" height="16" rx="3" fill="#2e7d32"/><text x="324.0" y="206.0" font-size="14" fill="#24292f">Low: 12 (6%)</text>
  <rect x="300.0" y="223.0" width="16" height="16" rx="3" fill="#9e9e9e"/><text x="324.0" y="236.0" font-size="14" fill="#24292f">Unscored: 7 (3%)</text>
</svg>
